<?xml version="1.0" standalone="no"?>
<!DOCTYPE svg PUBLIC "-//W3C//DTD SVG 20010904//EN"
 "http://www.w3.org/TR/2001/REC-SVG-20010904/DTD/svg10.dtd">
<svg version="1.0" xmlns="http://www.w3.org/2000/svg"
 width="512.000000pt" height="512.000000pt" viewBox="0 0 512.000000 512.000000"
 preserveAspectRatio="xMidYMid meet">
<metadata>
Created by potrace 1.14, written by Peter Selinger 2001-2017
</metadata>
<g transform="translate(0.000000,512.000000) scale(0.100000,-0.100000)"
fill="#000000" stroke="none">
<path d="M2289 5116 c-2 -2 -44 -6 -92 -10 -48 -4 -93 -9 -100 -11 -7 -2 -36
-6 -65 -9 -145 -16 -394 -82 -561 -148 -95 -37 -265 -120 -269 -130 -2 -4 -8
-8 -13 -8 -15 0 -136 -79 -224 -145 -432 -327 -750 -858 -888 -1485 -22 -100
-31 -154 -52 -305 -27 -202 -27 -611 1 -815 4 -32 8 -56 20 -130 27 -161 96
-419 134 -505 5 -11 23 -54 40 -95 52 -126 166 -331 227 -410 156 -201 263
-311 413 -424 358 -270 780 -417 1357 -473 157 -15 639 -8 783 11 14 2 49 7
79 11 30 4 61 8 70 10 9 1 36 6 61 10 128 20 393 96 540 155 82 32 242 115
331 170 384 238 688 621 856 1080 31 83 76 229 88 283 2 10 7 27 10 37 6 19
12 46 20 95 3 17 8 37 10 45 2 8 6 32 9 52 3 21 9 55 12 75 23 140 29 244 28
498 0 329 -11 453 -61 690 -61 293 -165 563 -305 795 -21 36 -44 74 -51 85 -7
11 -15 22 -18 25 -3 3 -20 27 -39 54 -76 112 -263 309 -376 396 -202 156 -406
268 -637 351 -108 39 -288 90 -382 109 -27 5 -61 12 -75 15 -14 2 -43 7 -65
10 -22 3 -51 7 -65 10 -13 2 -52 7 -86 11 -33 3 -74 7 -90 10 -34 5 -570 14
-575 10z m386 -81 c147 -12 249 -44 447 -140 85 -41 104 -55 149 -110 40 -50
63 -68 106 -86 63 -25 178 -40 246 -30 4 1 7 8 7 16 0 8 4 15 8 15 16 0 100
-59 137 -96 39 -40 82 -121 70 -132 -3 -4 -120 -7 -258 -7 -261 -1 -316 -8
-266 -36 16 -8 79 -14 194 -16 93 -2 173 -7 178 -12 11 -11 -38 -78 -80 -111
-32 -25 -53 -25 -95 -1 -29 16 -54 18 -228 16 -107 -1 -220 -5 -250 -9 -128
-16 -128 -16 -140 -47 -26 -61 21 -131 158 -231 53 -39 158 -117 232 -172 172
-127 320 -275 377 -376 49 -88 91 -207 100 -288 24 -205 -19 -473 -108 -670
-16 -34 -29 -65 -29 -67 0 -3 -21 -40 -47 -83 -145 -242 -330 -405 -586 -519
-67 -30 -135 -60 -152 -68 -16 -7 -95 -41 -175 -75 -215 -91 -266 -118 -328
-180 -164 -161 -204 -426 -94 -620 94 -166 257 -268 442 -276 293 -12 526 198
547 492 14 200 -80 380 -250 480 -59 35 -162 74 -194 74 -27 0 -5 13 82 50 44
18 112 51 150 73 122 69 290 170 295 178 5 7 34 12 59 10 19 -1 147 -133 201
-206 212 -287 256 -708 111 -1057 -104 -249 -347 -476 -616 -575 -155 -57
-392 -78 -549 -47 -512 99 -881 543 -877 1054 1 144 10 199 52 324 78 233 230
433 432 566 111 74 197 110 368 154 182 48 272 85 394 165 48 32 47 30 130
111 85 82 170 210 203 303 21 61 25 90 25 192 1 134 -15 194 -79 290 -62 92
-233 269 -319 330 -16 11 -33 25 -39 30 -6 6 -83 66 -171 135 -88 68 -175 137
-194 153 -32 27 -37 28 -135 27 -158 -3 -188 -1 -181 10 4 6 46 31 95 55 49
24 91 49 95 54 8 13 -60 47 -129 65 -30 8 -101 17 -158 21 -116 7 -181 14
-188 22 -11 11 94 93 162 126 87 43 114 53 143 56 17 1 16 21 -6 131 -15 78
-30 93 -145 151 -47 24 -87 46 -89 50 -3 4 19 17 48 30 65 29 216 35 321 13
94 -20 174 -12 239 23 28 16 52 33 54 38 2 6 -41 28 -95 49 -93 38 -250 113
-282 136 -15 10 0 9 70 -5 14 -3 60 -12 103 -20 44 -8 83 -18 89 -21 6 -4 66
-8 134 -10 105 -4 124 -2 124 11 0 8 -10 17 -22 20 -13 3 -72 17 -133 31 -60
14 -119 27 -130 30 -76 15 -124 28 -121 32 3 2 44 6 93 9 48 3 89 6 90 7 3 2
99 -2 178 -9z m-235 -1390 c165 -28 300 -82 430 -173 134 -94 259 -247 301
-370 58 -168 -13 -405 -175 -579 -108 -116 -240 -196 -404 -246 l-83 -26 61
65 c127 136 170 305 120 465 -24 79 -52 125 -113 187 -110 115 -285 162 -442
121 -145 -39 -275 -171 -315 -319 -7 -25 -13 -79 -14 -120 -4 -130 32 -221
120 -305 64 -62 138 -100 263 -135 l94 -26 -59 -29 c-137 -68 -274 -179 -402
-327 -20 -23 -41 -38 -55 -38 -42 1 -200 125 -285 225 -73 85 -159 255 -193
385 -19 71 -23 111 -23 245 -1 136 3 173 23 250 103 396 431 688 845 750 79
12 237 12 306 0z m-690 -1922 c0 -3 -9 -18 -20 -33 -58 -81 -130 -284 -130
-366 0 -37 -4 -41 -51 -49 -48 -8 -140 -24 -168 -30 -60 -11 -185 -47 -279
-79 -56 -19 -102 -31 -102 -27 0 20 35 122 57 166 99 194 321 366 528 408 67
13 165 19 165 10z"/>
<path d="M3148 4669 c-22 -12 -23 -42 -3 -59 13 -11 22 -10 53 4 l37 18 -28
24 c-31 27 -35 28 -59 13z"/>
</g>
</svg>
